<svg version="1.1" id="Layer_1" xmlns="http://www.w3.org/2000/svg" xmlns:xlink="http://www.w3.org/1999/xlink" x="0px" y="0px"
	 width="100%" viewBox="0 0 500 500" enable-background="new 0 0 500 500" xml:space="preserve">
<path fill="#FFFFFF" opacity="1.000000" stroke="none" 
	d="
M469.000000,501.000000 
	C312.666718,501.000000 156.833405,501.000000 1.000084,501.000000 
	C1.000056,334.333405 1.000056,167.666824 1.000028,1.000173 
	C167.666550,1.000115 334.333099,1.000115 500.999756,1.000058 
	C500.999817,167.666519 500.999817,334.333038 500.999908,500.999756 
	C490.500000,501.000000 480.000000,501.000000 469.000000,501.000000 
M109.944229,274.007385 
	C111.067955,273.044769 112.277313,272.164825 113.300125,271.104828 
	C117.112656,267.153717 122.560387,263.729950 124.194695,259.002167 
	C126.096848,253.499557 124.640671,246.835938 124.641342,240.676163 
	C124.641838,236.103806 124.641434,231.531433 124.641434,227.005829 
	C119.609375,227.005829 115.390572,227.005829 110.943558,227.005829 
	C110.943558,239.518936 110.833900,251.662933 111.002502,263.803040 
	C111.062218,268.103149 108.018845,269.170380 105.765511,271.179321 
	C105.333694,271.000977 104.901878,270.822632 104.470062,270.644287 
	C104.470062,256.099823 104.470062,241.555389 104.470062,226.969910 
	C99.591446,226.969910 95.371078,226.969910 90.862434,226.969910 
	C90.862434,240.116791 90.854988,252.922241 90.865707,265.727692 
	C90.870735,271.734680 93.127007,273.997864 99.065422,274.006287 
	C102.395027,274.010986 105.724640,274.008026 109.944229,274.007385 
M204.210327,242.502777 
	C204.210327,252.924622 204.210327,263.346466 204.210327,274.012329 
	C213.007538,274.012329 220.994186,274.013702 228.980835,274.011902 
	C235.493057,274.010437 237.808701,271.694183 237.814087,265.172180 
	C237.818634,259.674530 237.861679,254.176224 237.781479,248.679764 
	C237.763489,247.448013 237.712067,245.836029 236.977753,245.058899 
	C233.004532,240.853943 228.871811,236.815674 222.179382,238.495544 
	C221.013214,238.788254 219.654251,238.313004 217.862427,238.142883 
	C217.862427,233.984924 217.862427,230.084259 217.862427,226.256348 
	C213.064224,226.256348 208.830246,226.256348 204.210312,226.256348 
	C204.210312,231.567322 204.210312,236.536133 204.210327,242.502777 
M401.545166,254.892715 
	C397.208374,255.992111 393.780151,253.903656 392.100708,250.510513 
	C390.118591,246.505936 393.563416,243.984909 396.216980,241.559357 
	C397.826599,244.670227 398.640503,248.405396 400.953247,250.126450 
	C403.442810,251.979111 407.337433,251.943619 410.812836,252.778458 
	C411.372864,238.902191 411.033325,238.546600 398.696350,238.544434 
	C394.204071,238.543655 389.671753,238.914017 385.231506,238.433319 
	C381.282471,238.005829 378.820221,240.797684 378.385986,243.040237 
	C377.664154,246.768005 378.067413,251.210571 379.507111,254.735153 
	C381.341217,259.225067 386.235626,258.204681 390.053741,257.842224 
	C394.365906,257.432861 396.640778,260.182404 397.721893,263.135864 
	C399.304688,267.459808 395.066467,268.828064 392.088257,271.730743 
	C391.861786,267.305389 391.688263,263.915009 391.520660,260.640106 
	C386.706024,260.640106 382.484009,260.640106 378.019958,260.640106 
	C378.019958,262.876312 378.008240,264.695129 378.022247,266.513733 
	C378.058075,271.162262 380.842590,273.987793 385.460541,274.005737 
	C391.616516,274.029663 397.772766,274.027496 403.928680,273.997009 
	C405.074768,273.991333 406.413177,274.143616 407.329529,273.629242 
	C410.149811,272.046112 412.799805,262.724976 410.804718,259.323944 
	C409.178467,256.551636 406.560150,253.836166 401.545166,254.892715 
M136.740128,241.175980 
	C132.918915,243.423920 130.559723,246.260086 131.114456,251.205963 
	C131.593948,255.480942 131.174286,259.852997 131.239334,264.180817 
	C131.256165,265.301453 131.198944,266.841888 131.859390,267.465637 
	C135.898132,271.279999 139.700806,275.793152 146.340820,274.054932 
	C147.431595,273.769379 148.675583,273.895447 149.824203,274.034363 
	C155.067993,274.668549 158.931015,273.317749 162.399323,268.679596 
	C164.050217,266.471832 165.262466,265.381104 164.251938,262.864899 
	C159.768890,262.864899 155.544113,262.864899 152.705826,262.864899 
	C150.252930,266.269104 148.444901,268.778351 146.636871,271.287567 
	C146.232376,271.098022 145.827896,270.908478 145.423401,270.718933 
	C145.423401,266.574371 145.423401,262.429840 145.423401,257.859589 
	C149.663101,257.859589 153.791687,257.901428 157.918396,257.831787 
	C159.025757,257.813080 160.388824,257.798981 161.186615,257.193085 
	C164.722656,254.507401 166.247742,250.309509 164.535309,246.665024 
	C163.017593,243.434998 159.681488,239.637070 156.509262,238.921295 
	C150.967499,237.670868 144.933716,238.532730 139.111038,238.690536 
	C138.456161,238.708267 137.832962,239.894409 136.740128,241.175980 
M278.155060,254.547897 
	C277.880157,251.332077 278.683472,247.389648 277.107300,245.050781 
	C273.760986,240.085266 268.819000,237.063568 262.125366,238.472916 
	C259.575348,239.009811 256.819061,238.522247 254.159439,238.596603 
	C251.801102,238.662506 244.940323,245.006088 244.904449,247.298141 
	C244.810684,253.285904 244.855743,259.276245 244.895630,265.265228 
	C244.900955,266.064484 244.914886,267.217987 245.402542,267.604065 
	C249.523163,270.866333 252.766541,275.752869 259.408325,274.126740 
	C262.390472,273.396637 265.700623,274.038116 268.860657,273.983459 
	C269.817017,273.966919 271.202484,274.054169 271.653961,273.496674 
	C274.971313,269.400208 280.133362,266.125580 278.206085,259.500336 
	C277.849121,258.273193 278.155060,256.853271 278.155060,254.547897 
M363.586487,261.900726 
	C362.124512,261.900726 360.662537,261.900726 359.200562,261.900726 
	C359.495209,262.248901 359.789825,262.597076 360.084473,262.945221 
	C358.225006,265.764679 356.365509,268.584137 354.506042,271.403595 
	C353.941406,271.181183 353.376801,270.958740 352.812195,270.736298 
	C352.812195,264.159882 353.130615,257.562592 352.700867,251.014404 
	C352.411804,246.609421 354.227173,243.925858 358.384979,240.878647 
	C358.707275,245.103439 358.967316,248.512115 359.237854,252.058594 
	C363.104584,252.058594 366.584045,252.070114 370.063324,252.048080 
	C370.693451,252.044083 371.322723,251.902618 371.899139,251.831223 
	C373.014404,245.256927 367.660461,238.572571 361.425934,238.554169 
	C357.102417,238.541397 352.777222,238.488449 348.455872,238.588409 
	C345.435394,238.658249 339.066772,245.167709 339.038910,248.149429 
	C338.987610,253.637314 338.999634,259.126190 339.042816,264.614197 
	C339.050415,265.579956 338.985901,266.975800 339.553619,267.439087 
	C343.731995,270.848999 347.177704,275.869690 353.877563,274.078766 
	C355.585083,273.622375 357.546906,273.803436 359.341675,274.052917 
	C363.077606,274.572266 366.491455,273.824036 368.545288,270.672028 
	C370.158386,268.196503 374.690216,266.601715 371.596863,261.900635 
	C369.437958,261.900635 366.980255,261.900635 363.586487,261.900726 
M287.245087,235.466736 
	C286.197327,237.028046 285.149567,238.589371 284.860931,239.019470 
	C285.806122,242.425446 287.020813,244.996338 287.147919,247.619904 
	C287.453888,253.935806 287.221588,260.276550 287.262451,266.606934 
	C287.291107,271.050720 290.174225,274.009460 294.525879,273.998810 
	C301.259094,273.982330 308.281830,275.292175 313.846863,270.027863 
	C313.846863,268.117645 313.846863,266.185944 313.846863,264.233704 
	C310.493164,264.233704 307.430145,264.233704 304.242371,264.233704 
	C304.050262,266.620453 303.883118,268.697418 303.715973,270.774353 
	C302.908020,270.803619 302.100067,270.832886 301.292114,270.862152 
	C300.716064,261.244324 301.141541,251.567673 300.996124,242.149567 
	C303.857422,241.560883 306.028687,241.114151 308.199982,240.667419 
	C308.161652,240.122803 308.123352,239.578186 308.085052,239.033585 
	C305.809082,238.734741 303.533081,238.435898 300.896637,238.089722 
	C300.896637,235.201141 300.896637,232.613174 300.896637,229.904449 
	C296.220337,229.904449 291.961151,229.904449 287.244995,229.904449 
	C287.244995,231.661865 287.244995,233.127029 287.245087,235.466736 
M184.461807,263.451599 
	C184.507004,257.216431 184.552200,250.981262 184.597382,244.746094 
	C185.300461,244.705353 186.003525,244.664612 186.706589,244.623856 
	C187.179825,246.500885 187.653046,248.377914 188.063599,250.006348 
	C192.078094,250.006348 195.789749,250.006348 199.257263,250.006348 
	C200.975983,245.087143 199.565384,240.873932 195.793945,239.140625 
	C189.727203,236.352402 184.770340,239.696686 180.632812,245.946381 
	C180.109070,242.550659 179.826187,240.716476 179.552368,238.941193 
	C176.526535,238.941193 173.808624,238.941193 171.154572,238.941193 
	C171.154572,250.768890 171.154572,262.188202 171.154572,273.680450 
	C175.656494,273.680450 179.862122,273.680450 184.461746,273.680450 
	C184.461746,270.380310 184.461746,267.404816 184.461807,263.451599 
M331.999908,263.468811 
	C331.999908,255.341034 331.999908,247.213272 331.999908,238.981384 
	C327.213013,238.981384 322.843475,238.981384 318.562378,238.981384 
	C318.562378,250.835922 318.562378,262.252869 318.562378,273.684845 
	C323.168610,273.684845 327.404510,273.684845 331.999908,273.684845 
	C331.999908,270.395813 331.999908,267.425354 331.999908,263.468811 
M326.276367,224.905197 
	C322.797028,224.949692 318.732849,223.992828 317.915985,229.124557 
	C317.166656,233.832108 319.520813,235.468491 326.232605,235.493500 
	C329.617310,235.506104 332.098297,234.597534 332.423859,230.846741 
	C332.748108,227.110703 331.104614,224.933975 326.276367,224.905197 
z"/>
<path fill="#040404" opacity="1.000000" stroke="none" 
	d="
M109.499237,274.007935 
	C105.724640,274.008026 102.395027,274.010986 99.065422,274.006287 
	C93.127007,273.997864 90.870735,271.734680 90.865707,265.727692 
	C90.854988,252.922241 90.862434,240.116791 90.862434,226.969910 
	C95.371078,226.969910 99.591446,226.969910 104.470062,226.969910 
	C104.470062,241.555389 104.470062,256.099823 104.470062,270.644287 
	C104.901878,270.822632 105.333694,271.000977 105.765511,271.179321 
	C108.018845,269.170380 111.062218,268.103149 111.002502,263.803040 
	C110.833900,251.662933 110.943558,239.518936 110.943558,227.005829 
	C115.390572,227.005829 119.609375,227.005829 124.641434,227.005829 
	C124.641434,231.531433 124.641838,236.103806 124.641342,240.676163 
	C124.640671,246.835938 126.096848,253.499557 124.194695,259.002167 
	C122.560387,263.729950 117.112656,267.153717 113.300125,271.104828 
	C112.277313,272.164825 111.067955,273.044769 109.499237,274.007935 
z"/>
<path fill="#070707" opacity="1.000000" stroke="none" 
	d="
M204.210327,242.003845 
	C204.210312,236.536133 204.210312,231.567322 204.210312,226.256348 
	C208.830246,226.256348 213.064224,226.256348 217.862427,226.256348 
	C217.862427,230.084259 217.862427,233.984924 217.862427,238.142883 
	C219.654251,238.313004 221.013214,238.788254 222.179382,238.495544 
	C228.871811,236.815674 233.004532,240.853943 236.977753,245.058899 
	C237.712067,245.836029 237.763489,247.448013 237.781479,248.679764 
	C237.861679,254.176224 237.818634,259.674530 237.814087,265.172180 
	C237.808701,271.694183 235.493057,274.010437 228.980835,274.011902 
	C220.994186,274.013702 213.007538,274.012329 204.210327,274.012329 
	C204.210327,263.346466 204.210327,252.924622 204.210327,242.003845 
M224.028351,259.413940 
	C224.028351,253.551773 224.028351,247.689606 224.028351,240.397247 
	C220.531769,243.846115 217.525085,245.183777 217.882645,249.578125 
	C218.367081,255.531662 217.977402,261.554199 218.034485,267.546448 
	C218.045471,268.699432 218.387451,269.849274 218.652252,271.459717 
	C223.598923,268.667633 224.714432,264.937653 224.028351,259.413940 
z"/>
<path fill="#070707" opacity="1.000000" stroke="none" 
	d="
M401.995239,254.900208 
	C406.560150,253.836166 409.178467,256.551636 410.804718,259.323944 
	C412.799805,262.724976 410.149811,272.046112 407.329529,273.629242 
	C406.413177,274.143616 405.074768,273.991333 403.928680,273.997009 
	C397.772766,274.027496 391.616516,274.029663 385.460541,274.005737 
	C380.842590,273.987793 378.058075,271.162262 378.022247,266.513733 
	C378.008240,264.695129 378.019958,262.876312 378.019958,260.640106 
	C382.484009,260.640106 386.706024,260.640106 391.520660,260.640106 
	C391.688263,263.915009 391.861786,267.305389 392.088257,271.730743 
	C395.066467,268.828064 399.304688,267.459808 397.721893,263.135864 
	C396.640778,260.182404 394.365906,257.432861 390.053741,257.842224 
	C386.235626,258.204681 381.341217,259.225067 379.507111,254.735153 
	C378.067413,251.210571 377.664154,246.768005 378.385986,243.040237 
	C378.820221,240.797684 381.282471,238.005829 385.231506,238.433319 
	C389.671753,238.914017 394.204071,238.543655 398.696350,238.544434 
	C411.033325,238.546600 411.372864,238.902191 410.812836,252.778458 
	C407.337433,251.943619 403.442810,251.979111 400.953247,250.126450 
	C398.640503,248.405396 397.826599,244.670227 396.216980,241.559357 
	C393.563416,243.984909 390.118591,246.505936 392.100708,250.510513 
	C393.780151,253.903656 397.208374,255.992111 401.995239,254.900208 
z"/>
<path fill="#080808" opacity="1.000000" stroke="none" 
	d="
M136.967606,240.857361 
	C137.832962,239.894409 138.456161,238.708267 139.111038,238.690536 
	C144.933716,238.532730 150.967499,237.670868 156.509262,238.921295 
	C159.681488,239.637070 163.017593,243.434998 164.535309,246.665024 
	C166.247742,250.309509 164.722656,254.507401 161.186615,257.193085 
	C160.388824,257.798981 159.025757,257.813080 157.918396,257.831787 
	C153.791687,257.901428 149.663101,257.859589 145.423401,257.859589 
	C145.423401,262.429840 145.423401,266.574371 145.423401,270.718933 
	C145.827896,270.908478 146.232376,271.098022 146.636871,271.287567 
	C148.444901,268.778351 150.252930,266.269104 152.705826,262.864899 
	C155.544113,262.864899 159.768890,262.864899 164.251938,262.864899 
	C165.262466,265.381104 164.050217,266.471832 162.399323,268.679596 
	C158.931015,273.317749 155.067993,274.668549 149.824203,274.034363 
	C148.675583,273.895447 147.431595,273.769379 146.340820,274.054932 
	C139.700806,275.793152 135.898132,271.279999 131.859390,267.465637 
	C131.198944,266.841888 131.256165,265.301453 131.239334,264.180817 
	C131.174286,259.852997 131.593948,255.480942 131.114456,251.205963 
	C130.559723,246.260086 132.918915,243.423920 136.967606,240.857361 
M149.811264,241.739899 
	C144.174530,244.652756 144.383560,249.404053 145.576508,254.844040 
	C147.387085,254.750839 148.969910,254.669342 150.644531,254.583145 
	C150.644531,250.187805 150.644531,246.123428 149.811264,241.739899 
z"/>
<path fill="#020202" opacity="1.000000" stroke="none" 
	d="
M278.155060,255.035110 
	C278.155060,256.853271 277.849121,258.273193 278.206085,259.500336 
	C280.133362,266.125580 274.971313,269.400208 271.653961,273.496674 
	C271.202484,274.054169 269.817017,273.966919 268.860657,273.983459 
	C265.700623,274.038116 262.390472,273.396637 259.408325,274.126740 
	C252.766541,275.752869 249.523163,270.866333 245.402542,267.604065 
	C244.914886,267.217987 244.900955,266.064484 244.895630,265.265228 
	C244.855743,259.276245 244.810684,253.285904 244.904449,247.298141 
	C244.940323,245.006088 251.801102,238.662506 254.159439,238.596603 
	C256.819061,238.522247 259.575348,239.009811 262.125366,238.472916 
	C268.819000,237.063568 273.760986,240.085266 277.107300,245.050781 
	C278.683472,247.389648 277.880157,251.332077 278.155060,255.035110 
M264.738678,253.531799 
	C264.625824,249.509415 264.513000,245.487030 264.400177,241.464630 
	C263.710907,241.363510 263.021667,241.262375 262.332397,241.161240 
	C260.996216,243.487518 258.711487,245.733902 258.507568,248.155533 
	C257.966492,254.580414 258.273407,261.081726 258.369019,267.550751 
	C258.387177,268.778992 258.984711,269.998657 259.361359,271.394348 
	C264.839325,268.434235 265.178619,264.139404 264.762238,259.486633 
	C264.614960,257.840729 264.738647,256.170563 264.738678,253.531799 
z"/>
<path fill="#060606" opacity="1.000000" stroke="none" 
	d="
M364.054535,261.900696 
	C366.980255,261.900635 369.437958,261.900635 371.596863,261.900635 
	C374.690216,266.601715 370.158386,268.196503 368.545288,270.672028 
	C366.491455,273.824036 363.077606,274.572266 359.341675,274.052917 
	C357.546906,273.803436 355.585083,273.622375 353.877563,274.078766 
	C347.177704,275.869690 343.731995,270.848999 339.553619,267.439087 
	C338.985901,266.975800 339.050415,265.579956 339.042816,264.614197 
	C338.999634,259.126190 338.987610,253.637314 339.038910,248.149429 
	C339.066772,245.167709 345.435394,238.658249 348.455872,238.588409 
	C352.777222,238.488449 357.102417,238.541397 361.425934,238.554169 
	C367.660461,238.572571 373.014404,245.256927 371.899139,251.831223 
	C371.322723,251.902618 370.693451,252.044083 370.063324,252.048080 
	C366.584045,252.070114 363.104584,252.058594 359.237854,252.058594 
	C358.967316,248.512115 358.707275,245.103439 358.384979,240.878647 
	C354.227173,243.925858 352.411804,246.609421 352.700867,251.014404 
	C353.130615,257.562592 352.812195,264.159882 352.812195,270.736298 
	C353.376801,270.958740 353.941406,271.181183 354.506042,271.403595 
	C356.365509,268.584137 358.225006,265.764679 360.084473,262.945221 
	C359.789825,262.597076 359.495209,262.248901 359.200562,261.900726 
	C360.662537,261.900726 362.124512,261.900726 364.054535,261.900696 
z"/>
<path fill="#070707" opacity="1.000000" stroke="none" 
	d="
M287.245056,235.029480 
	C287.244995,233.127029 287.244995,231.661865 287.244995,229.904449 
	C291.961151,229.904449 296.220337,229.904449 300.896637,229.904449 
	C300.896637,232.613174 300.896637,235.201141 300.896637,238.089722 
	C303.533081,238.435898 305.809082,238.734741 308.085052,239.033585 
	C308.123352,239.578186 308.161652,240.122803 308.199982,240.667419 
	C306.028687,241.114151 303.857422,241.560883 300.996124,242.149567 
	C301.141541,251.567673 300.716064,261.244324 301.292114,270.862152 
	C302.100067,270.832886 302.908020,270.803619 303.715973,270.774353 
	C303.883118,268.697418 304.050262,266.620453 304.242371,264.233704 
	C307.430145,264.233704 310.493164,264.233704 313.846863,264.233704 
	C313.846863,266.185944 313.846863,268.117645 313.846863,270.027863 
	C308.281830,275.292175 301.259094,273.982330 294.525879,273.998810 
	C290.174225,274.009460 287.291107,271.050720 287.262451,266.606934 
	C287.221588,260.276550 287.453888,253.935806 287.147919,247.619904 
	C287.020813,244.996338 285.806122,242.425446 284.860931,239.019470 
	C285.149567,238.589371 286.197327,237.028046 287.245056,235.029480 
z"/>
<path fill="#040404" opacity="1.000000" stroke="none" 
	d="
M184.461777,263.940460 
	C184.461746,267.404816 184.461746,270.380310 184.461746,273.680450 
	C179.862122,273.680450 175.656494,273.680450 171.154572,273.680450 
	C171.154572,262.188202 171.154572,250.768890 171.154572,238.941193 
	C173.808624,238.941193 176.526535,238.941193 179.552368,238.941193 
	C179.826187,240.716476 180.109070,242.550659 180.632812,245.946381 
	C184.770340,239.696686 189.727203,236.352402 195.793945,239.140625 
	C199.565384,240.873932 200.975983,245.087143 199.257263,250.006348 
	C195.789749,250.006348 192.078094,250.006348 188.063599,250.006348 
	C187.653046,248.377914 187.179825,246.500885 186.706589,244.623856 
	C186.003525,244.664612 185.300461,244.705353 184.597382,244.746094 
	C184.552200,250.981262 184.507004,257.216431 184.461777,263.940460 
z"/>
<path fill="#070707" opacity="1.000000" stroke="none" 
	d="
M331.999908,263.961853 
	C331.999908,267.425354 331.999908,270.395813 331.999908,273.684845 
	C327.404510,273.684845 323.168610,273.684845 318.562378,273.684845 
	C318.562378,262.252869 318.562378,250.835922 318.562378,238.981384 
	C322.843475,238.981384 327.213013,238.981384 331.999908,238.981384 
	C331.999908,247.213272 331.999908,255.341034 331.999908,263.961853 
z"/>
<path fill="#020202" opacity="1.000000" stroke="none" 
	d="
M326.712341,224.905273 
	C331.104614,224.933975 332.748108,227.110703 332.423859,230.846741 
	C332.098297,234.597534 329.617310,235.506104 326.232605,235.493500 
	C319.520813,235.468491 317.166656,233.832108 317.915985,229.124557 
	C318.732849,223.992828 322.797028,224.949692 326.712341,224.905273 
z"/>
<path fill="#FFFFFF" opacity="1.000000" stroke="none" 
	d="
M224.028351,259.896881 
	C224.714432,264.937653 223.598923,268.667633 218.652252,271.459717 
	C218.387451,269.849274 218.045471,268.699432 218.034485,267.546448 
	C217.977402,261.554199 218.367081,255.531662 217.882645,249.578125 
	C217.525085,245.183777 220.531769,243.846115 224.028351,240.397247 
	C224.028351,247.689606 224.028351,253.551773 224.028351,259.896881 
z"/>
<path fill="#FFFFFF" opacity="1.000000" stroke="none" 
	d="
M150.227905,241.899475 
	C150.644531,246.123428 150.644531,250.187805 150.644531,254.583145 
	C148.969910,254.669342 147.387085,254.750839 145.576508,254.844040 
	C144.383560,249.404053 144.174530,244.652756 150.227905,241.899475 
z"/>
<path fill="#DCDCDC" opacity="1.000000" stroke="none" 
	d="
M264.738647,254.021637 
	C264.738647,256.170563 264.614960,257.840729 264.762238,259.486633 
	C265.178619,264.139404 264.839325,268.434235 259.361359,271.394348 
	C258.984711,269.998657 258.387177,268.778992 258.369019,267.550751 
	C258.273407,261.081726 257.966492,254.580414 258.507568,248.155533 
	C258.711487,245.733902 260.996216,243.487518 262.332397,241.161240 
	C263.021667,241.262375 263.710907,241.363510 264.400177,241.464630 
	C264.513000,245.487030 264.625824,249.509415 264.738647,254.021637 
z"/>
</svg>